<svg width="21" height="21" viewBox="0 0 21 21" fill="none" xmlns="http://www.w3.org/2000/svg">
<g id="logos:google-icon" clip-path="url(#clip0_849_4325)">
<path id="Vector" d="M20.9898 10.6965C20.9898 9.83611 20.9183 9.20827 20.7637 8.55719H10.709V12.4404H16.6109C16.4919 13.4055 15.8494 14.8588 14.4215 15.8354L14.4015 15.9654L17.5806 18.3718L17.8008 18.3933C19.8236 16.5679 20.9898 13.8821 20.9898 10.6965Z" fill="#4285F4"/>
<path id="Vector_2" d="M10.7095 20.9279C13.6009 20.9279 16.0283 19.9977 17.8013 18.3933L14.422 15.8354C13.5176 16.4516 12.3039 16.8818 10.7095 16.8818C7.87751 16.8818 5.47391 15.0564 4.61709 12.5335L4.4915 12.5439L1.18581 15.0436L1.14258 15.161C2.90362 18.5792 6.52096 20.9279 10.7095 20.9279Z" fill="#34A853"/>
<path id="Vector_3" d="M4.6168 12.5335C4.39072 11.8824 4.25988 11.1847 4.25988 10.4639C4.25988 9.74304 4.39072 9.04547 4.60491 8.39439L4.59892 8.25573L1.2518 5.71585L1.14229 5.76675C0.416473 7.18521 0 8.77808 0 10.4639C0 12.1498 0.416473 13.7426 1.14229 15.161L4.6168 12.5335Z" fill="#FBBC05"/>
<path id="Vector_4" d="M10.7095 4.04603C12.7204 4.04603 14.0769 4.89476 14.8503 5.60403L17.8727 2.72062C16.0165 1.03477 13.6009 0 10.7095 0C6.52096 0 2.90363 2.34855 1.14258 5.76674L4.6052 8.39439C5.47391 5.87142 7.87751 4.04603 10.7095 4.04603Z" fill="#EB4335"/>
</g>
<defs>
<clipPath id="clip0_849_4325">
<rect width="21" height="21" fill="white"/>
</clipPath>
</defs>
</svg>
