<svg width="28" height="38" viewBox="0 0 28 38" fill="none" xmlns="http://www.w3.org/2000/svg">
<path d="M14 18.5294C14.9625 18.5294 15.7865 18.1665 16.4719 17.4408C17.1573 16.7151 17.5 15.8426 17.5 14.8235C17.5 13.8044 17.1573 12.932 16.4719 12.2062C15.7865 11.4805 14.9625 11.1176 14 11.1176C13.0375 11.1176 12.2135 11.4805 11.5281 12.2062C10.8427 12.932 10.5 13.8044 10.5 14.8235C10.5 15.8426 10.8427 16.7151 11.5281 17.4408C12.2135 18.1665 13.0375 18.5294 14 18.5294ZM14 32.1485C17.5583 28.6897 20.1979 25.5474 21.9187 22.7217C23.6396 19.896 24.5 17.3868 24.5 15.1941C24.5 11.8279 23.4865 9.07169 21.4594 6.92537C19.4323 4.77904 16.9458 3.70588 14 3.70588C11.0542 3.70588 8.56771 4.77904 6.54063 6.92537C4.51354 9.07169 3.5 11.8279 3.5 15.1941C3.5 17.3868 4.36042 19.896 6.08125 22.7217C7.80208 25.5474 10.4417 28.6897 14 32.1485ZM14 37.0588C9.30417 32.8279 5.79688 28.8982 3.47812 25.2695C1.15937 21.6408 0 18.2824 0 15.1941C0 10.5618 1.40729 6.87132 4.22187 4.12279C7.03646 1.37426 10.2958 0 14 0C17.7042 0 20.9635 1.37426 23.7781 4.12279C26.5927 6.87132 28 10.5618 28 15.1941C28 18.2824 26.8406 21.6408 24.5219 25.2695C22.2031 28.8982 18.6958 32.8279 14 37.0588Z" fill="#DCBF85"/>
</svg>
